<svg xmlns="http://www.w3.org/2000/svg" width="466" height="347.46" viewBox="0 0 466 347.46">
  <defs>
    <style>
      .cls-1 {
        fill: #333;
      }

      .cls-2 {
        fill: #b4d2ed;
      }

      .cls-3, .cls-4 {
        fill: #80acd5;
      }

      .cls-4 {
        stroke: #333;
        stroke-miterlimit: 10;
        stroke-width: 6px;
      }

      .cls-5 {
        fill: #ffe59f;
      }
    </style>
  </defs>
  <g id="Capa_2" data-name="Capa 2">
    <g id="Capa_1-2" data-name="Capa 1">
      <g>
        <g>
          <path class="cls-1" d="M434.43,321.47c-1.66,6.78-4.16,13.07-9.27,17.94-6.41,6.12-14.07,8.06-22.52,8q-59.25-.12-118.51,0-104.55,0-209.11,0c-7.29,0-14.21-1.1-20.21-5.81-8-6.29-11.82-14.75-11.89-25.11-.05-8.52,0-17,0-25.55q0-129.33,0-258.66c0-13,4.78-23.18,16.15-28.86A33.39,33.39,0,0,1,73.38.24c39.25-.25,78.5-.36,117.74,0C209.56.34,224.7,8.6,234.35,25c5.12,8.7,10.71,11.4,20.35,11.28,49.31-.58,98.63-.23,147.94-.3,8.46,0,16.11,1.93,22.52,8,5.11,4.87,7.61,11.15,9.27,17.94Zm-196,14q81.81,0,163.62,0a32.63,32.63,0,0,0,8.33-.79c8.1-2.2,12.56-9.29,12.56-19.49V104.38a33.12,33.12,0,0,0-.12-4C422,93,418.38,87.62,411.59,85.22A28.71,28.71,0,0,0,402.2,84q-68.62-.1-137.24,0c-4.57,0-7.55-1.57-10.06-5.6-9.79-15.72-19.78-31.3-29.82-46.84-8.21-12.7-19.79-19.38-34.45-19.44-38.86-.15-77.73-.06-116.6,0a26.94,26.94,0,0,0-7.17.81c-8.1,2.31-12.48,9.3-12.48,19.56q0,141.3,0,282.6a35.38,35.38,0,0,0,.11,4c.72,6.21,3.41,11.4,8.92,13.93a28.13,28.13,0,0,0,11.42,2.34Q156.65,335.55,238.45,335.44ZM423,78V69C423,55.05,416.33,48,403.09,48q-74.5,0-149,0c-1.29,0-2.59.17-4.5.3,4.51,7.07,8.73,13.36,12.59,19.89A6.82,6.82,0,0,0,268.93,72c42.27-.12,84.55-.06,126.83-.09C405,71.94,414.39,71.28,423,78Z"/>
          <path class="cls-2" d="M238.45,335.44q-81.8,0-163.61-.1A28.13,28.13,0,0,1,63.42,333c-5.51-2.53-8.2-7.72-8.92-13.93a35.38,35.38,0,0,1-.11-4q0-141.3,0-282.6c0-10.26,4.38-17.25,12.48-19.56A26.94,26.94,0,0,1,74,12.11c38.87,0,77.74-.13,116.6,0,14.66.06,26.24,6.74,34.45,19.44,10,15.54,20,31.12,29.82,46.84,2.51,4,5.49,5.61,10.06,5.6q68.63-.18,137.24,0a28.71,28.71,0,0,1,9.39,1.23c6.79,2.4,10.36,7.82,11.25,15.17a33.12,33.12,0,0,1,.12,4V315.13c0,10.2-4.46,17.29-12.56,19.49a32.63,32.63,0,0,1-8.33.79Q320.26,335.47,238.45,335.44Z"/>
          <path class="cls-3" d="M423,78c-8.57-6.73-17.93-6.07-27.2-6.07-42.28,0-84.56,0-126.83.09a6.82,6.82,0,0,1-6.74-3.82c-3.86-6.53-8.08-12.82-12.59-19.89,1.91-.13,3.21-.3,4.5-.3q74.49,0,149,0C416.33,48,423,55.05,423,69Z"/>
        </g>
        <path class="cls-4" d="M199.62,285.06c-.82,3.26-1.14,6.63-2.38,9.79-5.39,13.73-15,22-29,24.71a30.17,30.17,0,0,1-5.91.39c-41.76,0-83.51.07-125.27,0-14.12,0-24.56-7-30.54-20.19s-4.2-26,4.5-37.45c5.94-7.84,14-11.73,23.4-12.8,1.27-.15,1.46-.45,1.08-1.7a42.66,42.66,0,0,1,1.63-30.18A40.41,40.41,0,0,1,58,196.07a37.57,37.57,0,0,1,17.87-3.51c12,.69,22,5.92,29.71,15.57a38.8,38.8,0,0,1,6,10.61c.52,1.36,1.12,1.55,2.47,1,11.22-4.25,21.5-2.52,30.77,5.44a29.31,29.31,0,0,1,9.55,16c.48,2.06,1.45,1.66,2.89,1.46a35.14,35.14,0,0,1,27.39,7.47c8.3,6.52,13.13,15.27,14.55,26a3.71,3.71,0,0,0,.36.88Z"/>
        <path class="cls-4" d="M463,260.76c-.6,2.35-.83,4.79-1.72,7.07-3.9,9.91-10.85,15.88-21,17.85a22,22,0,0,1-4.27.28q-45.24,0-90.49,0c-10.19,0-17.74-5.07-22.06-14.59s-3-18.75,3.25-27.05c4.29-5.66,10.12-8.47,16.9-9.25.92-.1,1.06-.32.78-1.23a30.91,30.91,0,0,1,1.18-21.8,29.25,29.25,0,0,1,15.11-15.55,27,27,0,0,1,12.91-2.53,28.63,28.63,0,0,1,21.46,11.24,28.22,28.22,0,0,1,4.35,7.67c.38,1,.81,1.12,1.78.75,8.11-3.07,15.54-1.81,22.23,3.94a21.11,21.11,0,0,1,6.9,11.54c.35,1.49,1,1.2,2.09,1.06a25.36,25.36,0,0,1,19.79,5.39,27.65,27.65,0,0,1,10.51,18.81,2.62,2.62,0,0,0,.26.63Z"/>
        <g>
          <path class="cls-1" d="M451.51,122.77c-.87,2.72-1.61,5.49-2.63,8.13a49.45,49.45,0,0,1-12.52,18.54,48.63,48.63,0,0,1-20,11.37,46.21,46.21,0,0,1-16.54,1.67,47.32,47.32,0,0,1-30.8-14.54,50.72,50.72,0,0,1-14-27.74,52.45,52.45,0,0,1,3.34-29.36,50.34,50.34,0,0,1,15.38-20.41,49.17,49.17,0,0,1,16.5-8.68,3.35,3.35,0,0,1,3.67,5.44,37.47,37.47,0,0,0-7.52,19.57,38.83,38.83,0,0,0,4.67,22.86,36.15,36.15,0,0,0,17.17,16,34.51,34.51,0,0,0,19.39,2.79,35.73,35.73,0,0,0,18.12-8.22,5.52,5.52,0,0,1,2.16-1.15c1.62-.37,2.71.42,3.58,2.33ZM442.14,131c-18,7.79-34.85,6.12-49-8.27s-16.31-31.94-9.36-50.89C370.16,79,358.88,96,361.34,116.72c2.36,19.89,17.5,36.15,37.1,38.69C417.36,157.87,434.35,147.06,442.14,131Z"/>
          <path class="cls-5" d="M442.14,131c-7.79,16-24.78,26.84-43.7,24.38-19.6-2.54-34.74-18.8-37.1-38.69C358.88,96,370.16,79,383.75,71.87c-6.95,18.95-4.82,36.49,9.36,50.89S424.13,138.82,442.14,131Z"/>
        </g>
      </g>
    </g>
  </g>
</svg>
