<svg xmlns="http://www.w3.org/2000/svg" width="191.27" height="157.31" viewBox="0 0 191.27 157.31">
  <defs>
    <style>
      .cls-1 {
        fill: #333;
      }

      .cls-2 {
        fill: #b3b3b3;
      }
    </style>
  </defs>
  <g id="Capa_2" data-name="Capa 2">
    <g id="Capa_1-2" data-name="Capa 1">
      <g>
        <path class="cls-1" d="M16.32,121.4c-1.34,1.06-2.59,2.08-3.87,3.07-1.77,1.38-3.63,1.34-4.93-.09a3.41,3.41,0,0,1,.56-5.06c1.72-1.47,3.62-2.72,5.36-4.16a2.24,2.24,0,0,0,.85-1.64A64,64,0,0,1,14,92.1c-2.85.71-5.42,1.34-8,2-.27.07-.52.23-.79.31-2.38.79-4.24.1-5-1.84S.5,88.69,2.87,88A99.76,99.76,0,0,1,13.4,85.58c1.52-.25,1.95-.9,2.52-2.2,2-4.65,1.25-8.79-.82-13.31A93,93,0,0,1,6.94,42.68a44.66,44.66,0,0,1,0-11.2c1-7.76,5.93-11.62,13.78-11.43,6.85.17,13.24,2.23,19.46,4.87,4.3,1.82,8.51,3.87,12.66,6A4.76,4.76,0,0,0,58,30.85c9.45-5.35,19.44-9.18,30.33-10.38a81.17,81.17,0,0,1,26.78,1.74,4.87,4.87,0,0,0,5.1-1.5c6.44-6.51,13.21-12.66,21.34-17A33.52,33.52,0,0,1,150,.42c6.08-1.39,10.47.71,13.56,6.14s4.12,11.56,4.63,17.74a131.48,131.48,0,0,1-.89,27.12,8.71,8.71,0,0,0,1.24,5.17c2,4.12,4.65,5.72,9.28,4.25,2.14-.67,4.64-.3,7-.23s3.82,1.56,3.76,3.49c-.07,2.08-1.63,3.29-4.12,3.33-2.94,0-5.89.17-8.59.25,1.6,5.42,3.16,10.47,4.57,15.56.54,2,.13,4.51,1.26,5.9s3.57,1.41,5.42,2.11a12.9,12.9,0,0,1,2.67,1.29,3.1,3.1,0,0,1,1.19,4.11,3,3,0,0,1-4,1.86c-1.74-.56-3.42-1.3-5.07-1.94-.21.23-.36.31-.37.42-1.5,13.82-8.88,24.43-18.68,33.59-10.32,9.66-22.71,15.81-36,20.29a120.23,120.23,0,0,1-62.88,4C49.71,152,36.84,146.33,26.36,136c-3.95-3.92-7.43-8.17-9.4-13.48A8,8,0,0,0,16.32,121.4ZM83.37,28.17c-.68.11-1.1.13-1.49.24-1.85.49-3.71,1-5.53,1.53C73,31,73,31,73.53,34.57c.58,3.93,1.23,7.85,1.74,11.78a3.4,3.4,0,0,1-2.92,4,3.35,3.35,0,0,1-3.75-2.94c-.22-1.11-.36-2.24-.53-3.36l-1.51-10c-2.22,1.14-4.14,2-6,3.09a10.08,10.08,0,0,1-10.31.11A113.22,113.22,0,0,0,37,31.07,87.93,87.93,0,0,0,21.48,27c-5.34-.86-7.88,1.32-8,6.72a62.82,62.82,0,0,0,1.2,13.47C16.4,56,19.83,64.37,23.49,72.6a10.14,10.14,0,0,1,.38,7.65c-.56,1.65-1,3.33-1.57,5.12l1.87.27A74.37,74.37,0,0,1,45,91.21c3.3,1.42,4.4,3.13,3.4,5.27s-2.85,2.35-6.07,1a66.93,66.93,0,0,0-21.47-5.23,52.65,52.65,0,0,0-.08,18.9,18.63,18.63,0,0,0,1.84-.49,62.07,62.07,0,0,1,17.18-3.76c2.5-.22,4.08.9,4.29,3s-1.09,3.43-3.65,3.76c-1.27.16-2.54.26-3.8.45a49.7,49.7,0,0,0-14.52,4.22c1.81,3,3.23,6,5.27,8.58,8.2,10.22,19.13,16.33,31.61,19.6,28.11,7.37,55.2,4.3,81.13-8.75,11.31-5.69,21.13-13.24,28.05-24.06,3.57-5.59,6.47-11.46,6.45-18.47-.61-.09-1.15-.21-1.69-.25a60.32,60.32,0,0,0-17.11,1.29,3.38,3.38,0,1,1-1.37-6.61c4.12-.67,8.27-1.23,12.42-1.62,2.41-.23,4.86,0,7.45,0a53.92,53.92,0,0,0-5.69-18c-.84.34-1.56.62-2.26.93A68.8,68.8,0,0,0,148.88,82c-1.95,1.66-3.9,1.67-5.27.15s-1.22-3.7.94-5.29c4.37-3.23,8.83-6.36,13.39-9.32a76,76,0,0,1,7.31-3.74,19.08,19.08,0,0,0-1.62-2.46c-3.07-3.46-3.41-7.41-3.08-11.89.62-8.17.84-16.39.8-24.58a29.84,29.84,0,0,0-3.71-14.91c-1.64-2.86-3.21-3.79-6.32-2.83a30.07,30.07,0,0,0-9.19,4.17c-5.93,4.45-11.62,9.25-17.09,14.27-3.33,3.05-6.73,4.5-11.16,3.38-1.9-.48-3.85-.72-6-1.11.16,1.07.28,1.83.39,2.6.53,3.5,1.09,7,1.57,10.51.31,2.21-.75,3.82-2.63,4.18s-3.6-.89-4.07-3.12c-.1-.48-.15-1-.23-1.47-.6-4-1.17-8-1.84-12-.09-.58-.6-1.56-.94-1.58-3.28-.12-6.56-.08-10.08-.09,1,6.63,1.91,12.71,2.83,18.8.54,3.57,1.12,7.14,1.59,10.73a3.32,3.32,0,0,1-2.9,4,3.36,3.36,0,0,1-3.78-2.92c-.17-.76-.25-1.54-.37-2.31C86.09,46.25,84.75,37.36,83.37,28.17Z"/>
        <path class="cls-2" d="M83.37,28.17c1.38,9.19,2.72,18.08,4.06,27,.12.77.2,1.55.37,2.31a3.36,3.36,0,0,0,3.78,2.92,3.32,3.32,0,0,0,2.9-4c-.47-3.59-1-7.16-1.59-10.73-.92-6.09-1.84-12.17-2.83-18.8,3.52,0,6.8,0,10.08.09.34,0,.85,1,.94,1.58.67,4,1.24,8,1.84,12,.08.49.13,1,.23,1.47.47,2.23,2.12,3.49,4.07,3.12s2.94-2,2.63-4.18c-.48-3.51-1-7-1.57-10.51-.11-.77-.23-1.53-.39-2.6,2.14.39,4.09.63,6,1.11,4.43,1.12,7.83-.33,11.16-3.38,5.47-5,11.16-9.82,17.09-14.27a30.07,30.07,0,0,1,9.19-4.17c3.11-1,4.68,0,6.32,2.83a29.84,29.84,0,0,1,3.71,14.91c0,8.19-.18,16.41-.8,24.58-.33,4.48,0,8.43,3.08,11.89a19.08,19.08,0,0,1,1.62,2.46,76,76,0,0,0-7.31,3.74c-4.56,3-9,6.09-13.39,9.32-2.16,1.59-2.38,3.7-.94,5.29s3.32,1.51,5.27-.15a68.8,68.8,0,0,1,17.53-11.07c.7-.31,1.42-.59,2.26-.93a53.92,53.92,0,0,1,5.69,18c-2.59,0-5-.2-7.45,0-4.15.39-8.3,1-12.42,1.62a3.38,3.38,0,1,0,1.37,6.61A60.32,60.32,0,0,1,173,95c.54,0,1.08.16,1.69.25,0,7-2.88,12.88-6.45,18.47-6.92,10.82-16.74,18.37-28.05,24.06-25.93,13-53,16.12-81.13,8.75-12.48-3.27-23.41-9.38-31.61-19.6-2-2.54-3.46-5.58-5.27-8.58a49.7,49.7,0,0,1,14.52-4.22c1.26-.19,2.53-.29,3.8-.45,2.56-.33,3.87-1.68,3.65-3.76s-1.79-3.24-4.29-3a62.07,62.07,0,0,0-17.18,3.76,18.63,18.63,0,0,1-1.84.49,52.65,52.65,0,0,1,.08-18.9,66.93,66.93,0,0,1,21.47,5.23c3.22,1.36,5.12,1.07,6.07-1s-.1-3.85-3.4-5.27a74.37,74.37,0,0,0-20.86-5.57l-1.87-.27c.55-1.79,1-3.47,1.57-5.12a10.14,10.14,0,0,0-.38-7.65C19.83,64.37,16.4,56,14.65,47.17a62.82,62.82,0,0,1-1.2-13.47c.15-5.4,2.69-7.58,8-6.72A87.93,87.93,0,0,1,37,31.07a113.22,113.22,0,0,1,13.27,6.19,10.08,10.08,0,0,0,10.31-.11c1.83-1,3.75-1.95,6-3.09l1.51,10c.17,1.12.31,2.25.53,3.36a3.35,3.35,0,0,0,3.75,2.94,3.4,3.4,0,0,0,2.92-4c-.51-3.93-1.16-7.85-1.74-11.78C73,31,73,31,76.35,29.94c1.82-.57,3.68-1,5.53-1.53C82.27,28.3,82.69,28.28,83.37,28.17ZM103.5,95.76c2-3.77,3.93-7.13,5.55-10.65,1.16-2.52-.91-5.36-3.43-4.71a6,6,0,0,0-3,2.65c-2,3.2-3.78,6.55-5.71,10a14.66,14.66,0,0,1-1.51-1c-2.61-2.37-5.26-4.7-7.8-7.15-2.21-2.12-5.27-1.81-5.9.89a4.63,4.63,0,0,0,.91,3.61c2.5,2.83,5.29,5.4,8,8.11a2.2,2.2,0,0,1-.59.43c-1.2.42-2.42.79-3.62,1.21-2.09.72-3,2.32-2.51,4.24a3.11,3.11,0,0,0,4.14,2.26,58.5,58.5,0,0,0,8.29-3.6,4,4,0,0,1,3.07-.48,48.38,48.38,0,0,0,8.56,1c2.55.05,3.91-1.52,3.73-3.6s-1.67-3.16-4.25-3.13C106.15,95.91,104.83,95.81,103.5,95.76ZM55.94,67.38a9.32,9.32,0,0,0-8,10.64,9.35,9.35,0,0,0,18.49-2.73A9.21,9.21,0,0,0,55.94,67.38ZM128,56.52a9.22,9.22,0,0,0-7.83,10.54A9.36,9.36,0,0,0,130.9,75a9.47,9.47,0,0,0,7.76-10.69A9.33,9.33,0,0,0,128,56.52Z"/>
        <path class="cls-1" d="M103.5,95.76c1.33,0,2.65.15,4,.14,2.58,0,4.06,1,4.25,3.13s-1.18,3.65-3.73,3.6a48.38,48.38,0,0,1-8.56-1,4,4,0,0,0-3.07.48,58.5,58.5,0,0,1-8.29,3.6,3.11,3.11,0,0,1-4.14-2.26c-.52-1.92.42-3.52,2.51-4.24,1.2-.42,2.42-.79,3.62-1.21a2.2,2.2,0,0,0,.59-.43c-2.72-2.71-5.51-5.28-8-8.11a4.63,4.63,0,0,1-.91-3.61c.63-2.7,3.69-3,5.9-.89,2.54,2.45,5.19,4.78,7.8,7.15a14.66,14.66,0,0,0,1.51,1c1.93-3.41,3.71-6.76,5.71-10a6,6,0,0,1,3-2.65c2.52-.65,4.59,2.19,3.43,4.71C107.43,88.63,105.49,92,103.5,95.76Z"/>
        <path class="cls-1" d="M55.94,67.38a9.21,9.21,0,0,1,10.47,7.91,9.35,9.35,0,1,1-10.47-7.91Z"/>
        <path class="cls-1" d="M128,56.52a9.33,9.33,0,0,1,10.66,7.75A9.47,9.47,0,0,1,130.9,75a9.36,9.36,0,0,1-10.73-7.9A9.22,9.22,0,0,1,128,56.52Z"/>
      </g>
    </g>
  </g>
</svg>
