<svg xmlns="http://www.w3.org/2000/svg" xmlns:xlink="http://www.w3.org/1999/xlink" width="342.21" height="342.18" viewBox="0 0 342.21 342.18">
  <defs>
    <style>
      .cls-1 {
        fill: none;
      }

      .cls-2 {
        clip-path: url(#clip-path);
      }

      .cls-3 {
        fill: #333;
      }

      .cls-4 {
        fill: #cbbddd;
      }
    </style>
    <clipPath id="clip-path" transform="translate(14.58 14.56)">
      <circle class="cls-1" cx="156.53" cy="156.53" r="156.53"/>
    </clipPath>
  </defs>
  <g id="Capa_2" data-name="Capa 2">
    <g id="Capa_1-2" data-name="Capa 1">
      <g class="cls-2">
        <g>
          <path class="cls-3" d="M327.63,147.73v17.39c-.23,1.3-.52,2.59-.7,3.9-1,7.39-1.5,14.88-3,22.14-7.57,35.84-24.78,66.35-51.75,91.14A167.27,167.27,0,0,1,181,325.62c-5.27.76-10.56,1.34-15.84,2H147.78c-1.19-.23-2.37-.53-3.56-.69-7.5-1-15.1-1.47-22.47-3.05C80.17,314.93,46,293.78,20.4,259.8c-31.07-41.24-41.27-87.69-31.29-138.26A160.84,160.84,0,0,1,34.47,36.78c43.75-43.24,96.4-59.26,156.71-47.71,38.84,7.44,71,27.39,96.42,57.68a166.62,166.62,0,0,1,38,85.13C326.39,137.15,327,142.45,327.63,147.73Zm-138,76.57c10.3,7.14,12.3,18.27,12.76,30.06q.35,8.85.86,17.69c.28,4.85.7,9.69,1.07,14.64,57.35-19.93,103.6-83.47,88.48-158.29A139,139,0,0,0,135.94,18.71C64.77,29.12,10.55,94.29,18,170.07c6.66,68.11,60.08,111,102,119.9V258.59c-2.74.38-5.45.85-8.17,1.11-10.87,1-21.36.22-30.59-6.56-5.76-4.22-8.58-10.37-11.35-16.6-3.28-7.37-7.81-13.72-15-17.87a13.13,13.13,0,0,1-3.31-2.77c-.65-.78-1.38-2.12-1.11-2.86a3.19,3.19,0,0,1,2.64-1.55c3.71.32,7.66.31,11,1.65,7,2.76,11.54,8.45,15.6,14.59,5.93,8.93,14.15,13.91,25.07,12.89,4.7-.44,9.33-1.92,13.89-3.27a5.54,5.54,0,0,0,3-3c1.6-3.82,3.61-7.15,7.55-8.94,1-.46,2-1,2.55-1.2-9.58-2.5-19.56-4.4-29-7.71-27.2-9.47-44.43-28.3-50.95-56.58-2.92-12.67-3-25.28,4.46-36.39,4.61-6.85,10.77-12.66,16.4-18.78,1.36-1.48,1.8-2.47,1.14-4.55a54.17,54.17,0,0,1,.46-34.14c2.16-6.51,2.41-6.55,9.34-5.52,12.63,1.88,23.62,7.66,34.12,14.53a6.88,6.88,0,0,0,6.13,1.1c23.42-6.25,46.86-6,70.3,0a6,6,0,0,0,3.91-.57c6.21-3.25,12.17-7,18.49-10,6.64-3.14,13.62-5.5,21.15-5.54,2,0,3,.52,3.09,2.79.35,11.13,1.11,22.25,1.16,33.38a14.81,14.81,0,0,0,4.09,10.94c22,24.12,21.65,58.05,7.57,82-7.83,13.34-19.59,22.23-34,27.17C209.91,219.76,199.74,221.7,189.62,224.3Z" transform="translate(14.58 14.56)"/>
          <path class="cls-4" d="M189.62,224.3c10.12-2.6,20.29-4.54,30-7.86,14.41-4.94,26.17-13.83,34-27.17,14.08-24,14.45-57.88-7.57-82A14.81,14.81,0,0,1,242,96.33c-.05-11.13-.81-22.25-1.16-33.38-.07-2.27-1.09-2.8-3.09-2.79-7.53,0-14.51,2.4-21.15,5.54-6.32,3-12.28,6.71-18.49,10a6,6,0,0,1-3.91.57c-23.44-6-46.88-6.3-70.3,0a6.88,6.88,0,0,1-6.13-1.1c-10.5-6.87-21.49-12.65-34.12-14.53-6.93-1-7.18-1-9.34,5.52a54.17,54.17,0,0,0-.46,34.14c.66,2.08.22,3.07-1.14,4.55-5.63,6.12-11.79,11.93-16.4,18.78-7.47,11.11-7.38,23.72-4.46,36.39,6.52,28.28,23.75,47.11,51,56.58,9.49,3.31,19.47,5.21,29.05,7.71-.51.24-1.52.74-2.55,1.2-3.94,1.79-5.95,5.12-7.55,8.94a5.54,5.54,0,0,1-3,3c-4.56,1.35-9.19,2.83-13.89,3.27-10.92,1-19.14-4-25.07-12.89-4.06-6.14-8.64-11.83-15.6-14.59-3.37-1.34-7.32-1.33-11-1.65A3.19,3.19,0,0,0,50.49,213c-.27.74.46,2.08,1.11,2.86a13.13,13.13,0,0,0,3.31,2.77c7.17,4.15,11.7,10.5,15,17.87,2.77,6.23,5.59,12.38,11.35,16.6,9.23,6.78,19.72,7.57,30.59,6.56,2.72-.26,5.43-.73,8.17-1.11V290c-41.95-8.86-95.37-51.79-102-119.9-7.42-75.78,46.8-140.95,118-151.36A139,139,0,0,1,292.79,128.4c15.12,74.82-31.13,138.36-88.48,158.29-.37-4.95-.79-9.79-1.07-14.64q-.53-8.83-.86-17.69C201.92,242.57,199.92,231.44,189.62,224.3Z" transform="translate(14.58 14.56)"/>
        </g>
      </g>
    </g>
  </g>
</svg>
