<svg xmlns="http://www.w3.org/2000/svg" width="387.15" height="251.85" viewBox="0 0 387.15 251.85">
  <defs>
    <style>
      .cls-1 {
        fill: #333;
      }

      .cls-2 {
        fill: #ded099;
      }

      .cls-3 {
        fill: #b4d2ed;
      }
    </style>
  </defs>
  <g id="Capa_2" data-name="Capa 2">
    <g id="Capa_1-2" data-name="Capa 1">
      <g>
        <path class="cls-1" d="M193.59,251.85q-82.67,0-165.34,0c-14.42,0-25-8.09-27.72-21.29a34.5,34.5,0,0,1-.51-7q0-97.45,0-194.9C0,11.14,10.9.05,28.43,0Q193.55,0,358.67,0c17.58,0,28.45,11.05,28.46,28.6q0,97.44,0,194.89c0,17.47-11,28.31-28.65,28.31Q276,251.87,193.59,251.85ZM31.21,238.07H356L255.24,117.52c-1.51,1.13-2.67,2-3.79,2.84-10.07,8-20.09,16.14-30.22,24.1-17.21,13.53-38.17,13.47-55.4-.07-3.46-2.71-6.86-5.49-10.29-8.23L132,117.4ZM24.39,14c1.61,1.36,2.26,1.94,2.93,2.48Q100.22,74.71,173.11,133c13.76,11,27.28,10.91,41.1-.13Q286.8,74.88,359.36,16.92a17.74,17.74,0,0,1,3.33-1.72L361.5,14ZM13.78,23c-.17,3-.38,5-.38,7q0,95.88,0,191.75a19.15,19.15,0,0,0,.18,4.8c.67,2.48,1.75,4.86,3,8L121.48,109Zm251.9,86L370,234c3.43-3.27,3.75-7.14,3.75-11.13q0-97,0-194c0-1.66-.28-3.31-.51-5.75Z"/>
        <path class="cls-2" d="M31.21,238.07,132,117.4l23.52,18.76c3.43,2.74,6.83,5.52,10.29,8.23,17.23,13.54,38.19,13.6,55.4.07,10.13-8,20.15-16.07,30.22-24.1,1.12-.89,2.28-1.71,3.79-2.84L356,238.07Z"/>
        <path class="cls-2" d="M24.39,14H361.5l1.19,1.23a17.74,17.74,0,0,0-3.33,1.72q-72.6,57.92-145.15,115.9c-13.82,11-27.34,11.1-41.1.13Q100.2,74.72,27.32,16.45C26.65,15.91,26,15.33,24.39,14Z"/>
        <path class="cls-2" d="M13.78,23l107.7,86L16.53,234.54c-1.2-3.17-2.28-5.55-3-8a19.15,19.15,0,0,1-.18-4.8q0-95.88,0-191.75C13.4,28,13.61,26,13.78,23Z"/>
        <path class="cls-2" d="M265.68,109,373.22,23.1c.23,2.44.51,4.09.51,5.75q0,97,0,194c0,4-.32,7.86-3.75,11.13Z"/>
        <g>
          <path class="cls-1" d="M161.93,128c-4.3-9-7.11-18.74-9.31-28.7-3.38-15.33-5.53-30.86-5.16-46.71a50.86,50.86,0,0,1,2.31-15.44c2.6-7.52,8.67-9.3,14.17-4.1,3.88,3.68,6.3,8.56,8.49,13.57,5.27,12,8.63,24.82,11.52,37.75,1.74,7.77,3.15,15.64,4.71,23.46.11.53.25,1,.4,1.71a23.79,23.79,0,0,1,17.16,0c.68-3.69,1.31-7.31,2-10.9,3.27-16.46,6.94-32.77,13-48.3,2.05-5.27,4.37-10.41,7.81-14.76a19.76,19.76,0,0,1,4.26-4.07c4.15-2.83,8.85-1.35,11.22,3.39a33,33,0,0,1,2.92,12.25c1.17,14.16-.39,28.11-2.8,42-2.14,12.26-5.06,24.26-9.85,35.61-.47,1.12-1,2.2-1.38,3.06,2.53,3.28,5.23,6.25,7.38,9.65,8.43,13.38,9.93,27.64,3.24,42.42-4,8.85-11,14.21-19.06,17.78-10.61,4.69-21.7,5.68-33,5-8.68-.52-17.13-2.33-25-6.62-10.75-5.85-17.64-15.06-19.45-28.5-1.71-12.75,1.94-23.73,9.19-33.42C158.32,131.94,160.14,130,161.93,128Zm67.16-3.46c1-2.33,2.17-4.51,3-6.82,3.47-9.33,5.52-19.12,7.2-29,2-12,3.54-24.15,3.36-36.41A66,66,0,0,0,241.1,39.5c-.72-3.38-3.49-4.39-6.12-2.46a14,14,0,0,0-4.08,4.49,98.11,98.11,0,0,0-6,12.95c-6.15,17.33-9.75,35.46-13,53.67-.69,3.89-.63,3.9,2.51,5.81a3.07,3.07,0,0,1,1.49,4.1c-.7,1.61-2.13,2.1-3.81,1.22s-3.06-1.72-4.58-2.61q-9.93-5.83-19.84,0c-1.52.89-3,1.79-4.59,2.6A2.52,2.52,0,0,1,179.3,118a3.05,3.05,0,0,1,1.44-4c1-.65,2.6-1,3-2s-.21-2.6-.44-3.93c-3.09-17.18-6.48-34.29-12-50.72a126.68,126.68,0,0,0-6.91-15.73,13.87,13.87,0,0,0-4.33-4.71c-2.49-1.77-4.88-.62-6,2.46a9.76,9.76,0,0,0-.64,2.29c-.36,3.67-.91,7.35-.92,11a209.06,209.06,0,0,0,3.4,36c1.68,9.89,3.73,19.67,7.22,29,.85,2.29,2,4.47,3,6.8l1.27-.88c1.68-1.17,3.33-2.44,5.07-3.51a2.39,2.39,0,0,1,3.46,1.07,3.13,3.13,0,0,1-.9,4c-.5.39-1,.72-1.56,1.07a54.23,54.23,0,0,0-11.83,10.4C153.39,146.9,150.3,158.6,154,172c2.8,10.17,9.42,16.46,18.06,20,15.57,6.39,31.43,6.4,47.31,1.53a32.36,32.36,0,0,0,17.56-12.31c7.89-11.19,7.76-28-.2-40.24-4.21-6.48-9.79-11.18-15.86-15.25-1.87-1.25-2.42-2.72-1.62-4.37s2.36-2,4.3-.76S227.06,123.05,229.09,124.49Z"/>
          <path class="cls-3" d="M229.09,124.49c-2-1.44-3.76-2.75-5.57-3.92s-3.48-.93-4.3.76-.25,3.12,1.62,4.37c6.07,4.07,11.65,8.77,15.86,15.25,8,12.24,8.09,29.05.2,40.24a32.36,32.36,0,0,1-17.56,12.31c-15.88,4.87-31.74,4.86-47.31-1.53-8.64-3.54-15.26-9.83-18.06-20-3.67-13.37-.58-25.07,7.7-35.25a54.23,54.23,0,0,1,11.83-10.4c.52-.35,1.06-.68,1.56-1.07a3.13,3.13,0,0,0,.9-4,2.39,2.39,0,0,0-3.46-1.07c-1.74,1.07-3.39,2.34-5.07,3.51l-1.27.88c-1-2.33-2.17-4.51-3-6.8-3.49-9.33-5.54-19.11-7.22-29a209.06,209.06,0,0,1-3.4-36c0-3.68.56-7.36.92-11a9.76,9.76,0,0,1,.64-2.29c1.09-3.08,3.48-4.23,6-2.46a13.87,13.87,0,0,1,4.33,4.71,126.68,126.68,0,0,1,6.91,15.73c5.56,16.43,9,33.54,12,50.72.23,1.33.87,2.93.44,3.93s-2,1.36-3,2a3.05,3.05,0,0,0-1.44,4,2.52,2.52,0,0,0,3.78,1.31c1.56-.81,3.07-1.71,4.59-2.6q9.92-5.85,19.84,0c1.52.89,3,1.79,4.58,2.61s3.11.39,3.81-1.22a3.07,3.07,0,0,0-1.49-4.1c-3.14-1.91-3.2-1.92-2.51-5.81,3.27-18.21,6.87-36.34,13-53.67a98.11,98.11,0,0,1,6-12.95A14,14,0,0,1,235,37c2.63-1.93,5.4-.92,6.12,2.46a66,66,0,0,1,1.58,12.76c.18,12.26-1.32,24.38-3.36,36.41-1.68,9.88-3.73,19.67-7.2,29C231.26,120,230.14,122.16,229.09,124.49ZM200.88,185c2,0,3.14-1,3.35-2.53a2.87,2.87,0,0,0-2.25-3.31,1.94,1.94,0,0,1-1.77-2,2.55,2.55,0,0,0-2.64-2.5,2.51,2.51,0,0,0-2.53,2.42c-.18,1.34-.69,1.87-1.88,2.08a2.83,2.83,0,0,0-2.16,3.21c.17,1.58,1.43,3,2.91,2.54C196.46,184.18,198.9,183.45,200.88,185Zm-29.81-17.76a3,3,0,1,0,2.61,3A2.83,2.83,0,0,0,171.07,167.21Zm53.17,0a3,3,0,1,0,2.6,3A2.86,2.86,0,0,0,224.24,167.21Z"/>
          <path class="cls-1" d="M200.88,185c-2-1.52-4.42-.79-7-.07-1.48.42-2.74-1-2.91-2.54a2.83,2.83,0,0,1,2.16-3.21c1.19-.21,1.7-.74,1.88-2.08a2.51,2.51,0,0,1,2.53-2.42,2.55,2.55,0,0,1,2.64,2.5,1.94,1.94,0,0,0,1.77,2,2.87,2.87,0,0,1,2.25,3.31C204,184,202.87,185,200.88,185Z"/>
          <path class="cls-1" d="M171.07,167.21a2.85,2.85,0,0,1,2.61,3,2.66,2.66,0,1,1-2.61-3Z"/>
          <path class="cls-1" d="M224.24,167.21a3,3,0,1,1-2.69,2.9A2.82,2.82,0,0,1,224.24,167.21Z"/>
        </g>
      </g>
    </g>
  </g>
</svg>
