<svg xmlns="http://www.w3.org/2000/svg" width="466" height="361.88" viewBox="0 0 466 361.88">
  <defs>
    <style>
      .cls-1 {
        fill: #333;
      }

      .cls-2 {
        fill: #e3b1d2;
      }

      .cls-3, .cls-4 {
        fill: #ab6689;
      }

      .cls-4 {
        stroke: #333;
        stroke-miterlimit: 10;
        stroke-width: 6px;
      }
    </style>
  </defs>
  <g id="Capa_2" data-name="Capa 2">
    <g id="Capa_1-2" data-name="Capa 1">
      <g>
        <g>
          <path class="cls-1" d="M440.4,319c-1.71,6.73-4.29,13-9.55,17.8-6.61,6.07-14.5,8-23.21,8q-61.06-.11-122.12,0-107.74,0-215.5,0c-7.5,0-14.63-1.09-20.82-5.77C41,332.76,37,324.36,37,314.08c-.05-8.44,0-16.9,0-25.35q0-128.33,0-256.67c0-12.87,4.93-23,16.64-28.63A35.49,35.49,0,0,1,68.34.24c40.44-.25,80.89-.36,121.33,0,19,.14,34.61,8.34,44.55,24.63,5.27,8.63,11,11.31,21,11.2,50.81-.59,101.63-.24,152.45-.3,8.71,0,16.6,1.91,23.21,8,5.26,4.84,7.84,11.07,9.55,17.8ZM238.45,332.86q84.3,0,168.61,0a34.17,34.17,0,0,0,8.58-.79c8.35-2.18,12.94-9.21,12.94-19.33q0-104.56,0-209.13a30.71,30.71,0,0,0-.12-4c-.92-7.3-4.6-12.67-11.6-15.05a30.66,30.66,0,0,0-9.67-1.23q-70.71-.11-141.43,0c-4.7,0-7.78-1.56-10.37-5.57-10.08-15.59-20.38-31-30.73-46.47C216.21,18.72,204.28,12.09,189.17,12c-40-.15-80.11-.07-120.16,0a28.11,28.11,0,0,0-7.39.8C53.27,15.11,48.76,22,48.76,32.23V312.66a32.45,32.45,0,0,0,.13,3.95c.74,6.17,3.51,11.32,9.19,13.83a30,30,0,0,0,11.76,2.32Q154.14,333,238.45,332.86ZM428.58,77.41v-9c0-13.79-6.84-20.76-20.48-20.77q-76.77,0-153.53,0c-1.33,0-2.67.17-4.64.3,4.65,7,9,13.26,13,19.73,1.73,2.81,3.65,3.8,6.94,3.8,43.57-.12,87.13-.07,130.7-.09C410.1,71.38,419.75,70.73,428.58,77.41Z"/>
          <path class="cls-2" d="M238.45,332.86q-84.3,0-168.61-.1a30,30,0,0,1-11.76-2.32c-5.68-2.51-8.45-7.66-9.19-13.83a32.45,32.45,0,0,1-.13-3.95V32.23c0-10.19,4.51-17.12,12.86-19.41A28.11,28.11,0,0,1,69,12c40.05,0,80.11-.13,120.16,0,15.11.05,27,6.68,35.49,19.29C235,46.75,245.31,62.21,255.39,77.8c2.59,4,5.67,5.58,10.37,5.57q70.71-.18,141.43,0a30.66,30.66,0,0,1,9.67,1.23c7,2.38,10.68,7.75,11.6,15.05a30.71,30.71,0,0,1,.12,4q0,104.56,0,209.13c0,10.12-4.59,17.15-12.94,19.33a34.17,34.17,0,0,1-8.58.79Q322.75,332.89,238.45,332.86Z"/>
          <path class="cls-3" d="M428.58,77.41c-8.83-6.68-18.48-6-28-6-43.57,0-87.13,0-130.7.09-3.29,0-5.21-1-6.94-3.8-4-6.47-8.33-12.72-13-19.73,2-.13,3.31-.3,4.64-.3q76.77,0,153.53,0c13.64,0,20.47,7,20.48,20.77Z"/>
        </g>
        <path class="cls-4" d="M47.48,268.6c-3.52-1.16-6.62-2.08-9.65-3.21C31,262.82,24.47,259.55,19,254.64a29.35,29.35,0,0,1,33.77-47.56c6.88,3.91,11.57,10,15.54,16.64,2.47,4.15,4.52,8.55,6.77,12.85,0-.48,0-1.09-.08-1.7A76.08,76.08,0,0,1,78.22,208c4.72-14.78,20.32-23,35.89-18.94,14.23,3.74,23.59,19.29,20.55,34-1.54,7.42-5.64,13.43-10.37,19-3.31,3.92-7,7.5-10.42,11.09,2-.68,4.22-1.53,6.5-2.23,7.49-2.28,15.11-3.76,23-3.24a29.38,29.38,0,1,1-6.55,58.33c-9.17-1.46-17.54-5.12-25.49-9.85a3.5,3.5,0,0,0-1.51-.59c1.35,1.79,2.75,3.55,4,5.38a71,71,0,0,1,9.81,18.88c7.15,21.77-11.11,42.9-33.41,38.38-12-2.43-19.81-10-22.68-22.1-2.22-9.3-1.28-18.66.6-27.94a12,12,0,0,0,.38-3.09L66.7,307.8c-5.06,7.28-10.87,13.87-18.27,18.83A29.14,29.14,0,0,1,4.85,312.42a29.44,29.44,0,0,1,13.19-36c8.39-4.62,17.58-6.61,27-7.57Zm41-10.17A14.44,14.44,0,1,0,96,277.49,14.29,14.29,0,0,0,88.43,258.43Z"/>
        <path class="cls-4" d="M373.7,251.59c-2.55-.84-4.8-1.5-7-2.32A42.91,42.91,0,0,1,353,241.48,21.27,21.27,0,0,1,377.5,207c5,2.84,8.38,7.24,11.25,12,1.79,3,3.28,6.2,4.9,9.32,0-.35,0-.79,0-1.23A55.33,55.33,0,0,1,396,207.69C399.39,197,410.69,191,422,194c10.31,2.71,17.09,14,14.89,24.64-1.12,5.38-4.09,9.74-7.51,13.79-2.4,2.84-5.09,5.43-7.55,8,1.43-.5,3.05-1.11,4.71-1.62a46.54,46.54,0,0,1,16.64-2.35,21.29,21.29,0,1,1-4.74,42.27,52.56,52.56,0,0,1-18.47-7.14,2.52,2.52,0,0,0-1.09-.43c1,1.29,2,2.57,2.92,3.9a51.19,51.19,0,0,1,7.11,13.68c5.18,15.76-8.05,31.07-24.21,27.81-8.72-1.77-14.34-7.28-16.43-16-1.61-6.73-.92-13.52.44-20.24a9.28,9.28,0,0,0,.28-2.24L387.62,280a50.71,50.71,0,0,1-13.24,13.64,21.11,21.11,0,0,1-31.57-10.29,21.32,21.32,0,0,1,9.56-26.07c6.08-3.35,12.73-4.79,19.57-5.49Zm29.66-7.36A10.46,10.46,0,1,0,408.83,258,10.34,10.34,0,0,0,403.36,244.23Z"/>
        <path class="cls-4" d="M396,79.93A32.32,32.32,0,0,0,384.5,81.4c-1.14.33-2.25.73-3.23,1.06,1.67-1.74,3.51-3.47,5.14-5.37,2.33-2.72,4.34-5.64,5.07-9.26a14.77,14.77,0,0,0-10.42-16.75C373.27,49,365.52,53,363.24,60.17a36.32,36.32,0,0,0-1.49,13.12c0,.3,0,.6.05.83-1.14-2.11-2.19-4.28-3.45-6.32-2-3.27-4.38-6.27-7.83-8.22a14.59,14.59,0,0,0-19,4.09,14.27,14.27,0,0,0,2.39,19A30.48,30.48,0,0,0,343.38,88c1.52.57,3.07,1,4.84,1.62l-1.21.11a34.62,34.62,0,0,0-13.44,3.57,14,14,0,0,0-6.4,17.54A14.86,14.86,0,0,0,349,118a33.74,33.74,0,0,0,9-9.12l.9-1.29a5.59,5.59,0,0,1-.17,1.51c-.89,4.53-1.32,9.1-.16,13.66a14.48,14.48,0,1,0,27.91-7.67,35.78,35.78,0,0,0-5-9.29c-.66-.9-1.37-1.77-2.05-2.65a1.83,1.83,0,0,1,.76.29,37.21,37.21,0,0,0,12.77,5A14.17,14.17,0,0,0,409.69,96,14.73,14.73,0,0,0,396,79.93Zm-28,21.9c-10.31,0-10.58-16-.28-16S378.27,101.83,368,101.83Z"/>
      </g>
    </g>
  </g>
</svg>
