<svg xmlns="http://www.w3.org/2000/svg" viewBox="0 0 452.06 386.22"><defs><style>.cls-1{fill:#333;}.cls-2{fill:#ded099;}.cls-3{fill:#a67c52;}.cls-4{fill:#e84d89;stroke:#333;stroke-miterlimit:10;stroke-width:10px;}</style></defs><g id="Capa_2" data-name="Capa 2"><g id="Capa_1-2" data-name="Capa 1"><path class="cls-1" d="M452.06,321.47c-1.74,6.78-4.35,13.07-9.69,17.94-6.69,6.12-14.68,8.06-23.51,8q-61.86-.12-123.74,0-109.17,0-218.34,0c-7.61,0-14.83-1.1-21.1-5.81-8.36-6.29-12.34-14.75-12.41-25.11-.06-8.52,0-17,0-25.55q0-129.33,0-258.66c0-13,5-23.18,16.85-28.86a36.23,36.23,0,0,1,15-3.21c41-.25,82-.36,122.94,0C217.26.34,233.07,8.6,243.15,25c5.34,8.7,11.18,11.4,21.24,11.28,51.49-.58,103-.23,154.47-.3,8.83,0,16.82,1.93,23.52,8,5.33,4.87,7.94,11.15,9.68,17.94Zm-204.63,14q85.43,0,170.84,0a35.48,35.48,0,0,0,8.69-.79c8.46-2.2,13.11-9.29,13.12-19.49V104.38a33.12,33.12,0,0,0-.12-4C439,93,435.29,87.62,428.21,85.22A31.25,31.25,0,0,0,418.4,84q-71.64-.1-143.29,0c-4.77,0-7.89-1.57-10.51-5.6C254.38,62.69,244,47.11,233.46,31.57c-8.57-12.7-20.66-19.38-36-19.44-40.59-.15-81.17-.06-121.75,0a29.31,29.31,0,0,0-7.49.81c-8.46,2.31-13,9.3-13,19.56q0,141.3,0,282.6a33.18,33.18,0,0,0,.12,4c.75,6.21,3.56,11.4,9.31,13.93a30.45,30.45,0,0,0,11.92,2.34Q162,335.55,247.43,335.44ZM440.08,78V69c0-13.9-6.93-20.92-20.75-20.93q-77.79,0-155.56,0c-1.36,0-2.71.17-4.71.3,4.71,7.07,9.12,13.36,13.15,19.89,1.75,2.83,3.7,3.83,7,3.82,44.14-.12,88.28-.06,132.42-.09C421.35,71.94,431.13,71.28,440.08,78Z"/><path class="cls-2" d="M247.43,335.44q-85.43,0-170.84-.1A30.45,30.45,0,0,1,64.67,333c-5.75-2.53-8.56-7.72-9.31-13.93a33.18,33.18,0,0,1-.12-4q0-141.3,0-282.6c0-10.26,4.57-17.25,13-19.56a29.31,29.31,0,0,1,7.49-.81c40.58,0,81.16-.13,121.75,0,15.3.06,27.39,6.74,36,19.44C244,47.11,254.38,62.69,264.6,78.41c2.62,4,5.74,5.61,10.51,5.6q71.64-.18,143.29,0a31.25,31.25,0,0,1,9.81,1.23C435.29,87.62,439,93,440,100.39a33.12,33.12,0,0,1,.12,4V315.13c0,10.2-4.66,17.29-13.12,19.49a35.48,35.48,0,0,1-8.69.79Q332.85,335.47,247.43,335.44Z"/><path class="cls-3" d="M440.08,78c-8.95-6.73-18.73-6.07-28.41-6.07-44.14,0-88.28,0-132.42.09-3.34,0-5.29-1-7-3.82-4-6.53-8.44-12.82-13.15-19.89,2-.13,3.35-.3,4.71-.3q77.78,0,155.56,0c13.82,0,20.74,7,20.75,20.93Z"/><path class="cls-4" d="M340.94,102.44l-1.35-2.87a7.85,7.85,0,0,0-5.81-4.38l-3.12-.51a7.81,7.81,0,0,1-4.09-13.4l2.31-2.17a7.81,7.81,0,0,0,2.37-6.87l-.48-3.13a7.82,7.82,0,0,1,11.49-8L345,62.6a7.82,7.82,0,0,0,7.27.14l2.83-1.43a7.81,7.81,0,0,1,11.18,8.44l-.59,3.11a7.82,7.82,0,0,0,2.12,7l2.23,2.25a7.81,7.81,0,0,1-4.57,13.24l-3.14.4a7.82,7.82,0,0,0-6,4.17L355,102.69A7.81,7.81,0,0,1,340.94,102.44Z"/><path class="cls-4" d="M385.69,376.48l-5.29-4.89a17.76,17.76,0,0,0-16-4.28l-7,1.59a17.76,17.76,0,0,1-20-24.75l3-6.55a17.75,17.75,0,0,0-.87-16.51l-3.68-6.19a17.76,17.76,0,0,1,17.35-26.72l7.15.84a17.78,17.78,0,0,0,15.44-5.93l4.75-5.41a17.77,17.77,0,0,1,30.78,8.24l1.4,7.06a17.78,17.78,0,0,0,10.41,12.85l6.62,2.85a17.76,17.76,0,0,1,1.67,31.81L425.1,344a17.72,17.72,0,0,0-9,13.86l-.67,7.18A17.76,17.76,0,0,1,385.69,376.48Z"/><path class="cls-4" d="M43.29,215.48,40.22,209A17.77,17.77,0,0,0,27,199l-7.11-1.17a17.76,17.76,0,0,1-9.29-30.47l5.24-4.94a17.78,17.78,0,0,0,5.4-15.63l-1.09-7.12a17.76,17.76,0,0,1,26.11-18.25l6.32,3.46a17.77,17.77,0,0,0,16.53.31L75.56,122A17.76,17.76,0,0,1,101,141.15l-1.34,7.08A17.77,17.77,0,0,0,104.47,164l5.07,5.12a17.77,17.77,0,0,1-10.4,30.12l-7.14.91a17.76,17.76,0,0,0-13.55,9.47l-3.31,6.4A17.76,17.76,0,0,1,43.29,215.48Z"/></g></g></svg>