<svg xmlns="http://www.w3.org/2000/svg" width="290.61" height="290.62" viewBox="0 0 290.61 290.62">
  <defs>
    <style>
      .cls-1 {
        fill: #ff976e;
        stroke: #333;
        stroke-miterlimit: 10;
        stroke-width: 20px;
      }

      .cls-2 {
        fill: #333;
      }
    </style>
  </defs>
  <g id="Capa_2" data-name="Capa 2">
    <g id="Capa_1-2" data-name="Capa 1">
      <g>
        <path class="cls-1" d="M146.9,10c74.62.76,134.6,62.65,133.7,136.88-.9,74.63-62.67,134.62-136.89,133.72C69.25,279.72,9.12,218.09,10,143.7S72.53,9,146.9,10Z"/>
        <g>
          <path class="cls-2" d="M70.17,191.7v-3.35c0-28.67,0-57.33-.07-86,0-3.08.82-3.86,3.85-3.82,13.62.17,27.25,0,40.88.1,7.84,0,15.2,1.52,21.69,6.57,8.75,6.81,11.32,28.83-2.33,35.64a7,7,0,0,0-1.07.86c2.26,1.59,4.47,3,6.56,4.63,7.7,5.91,9,20.45,4.43,29.76-5.13,10.5-13.9,15.35-25.12,15.64-15.82.41-31.66.27-47.49.34A6.09,6.09,0,0,1,70.17,191.7Zm21.68-16.33c8.81,0,17.12.45,25.35-.14,6.7-.47,10-5.39,9.88-12.76-.11-6.2-3.65-10.52-10-11-7.77-.56-15.58-.43-23.38-.49-.6,0-1.73.9-1.73,1.39C91.82,160.08,91.85,167.76,91.85,175.37Zm0-39.6c8.79-.35,17.16-.65,25.51-1.05a7.91,7.91,0,0,0,2.84-.93c3.82-1.79,5.4-5.2,4.86-10.32-.45-4.28-2.29-7-6.53-7.4-8.35-.76-16.75-.87-25.13-1.12-.5,0-1.47,1.06-1.48,1.64C91.79,122.69,91.83,128.79,91.83,135.77Z"/>
          <path class="cls-2" d="M172.06,160.71c-.31,7.58,3.3,13.23,9.57,15.45,7.53,2.67,14.92.7,19.16-5a3.39,3.39,0,0,1,2-1.47c5.4-.12,10.79-.06,16.49-.06a17.25,17.25,0,0,1-4.32,10c-9.14,11.26-21.41,13.69-34.75,11.12-16.72-3.22-25.46-14.16-26.06-31.25-.33-9.16.51-18.15,6-25.88,7.89-11.08,19.27-14.16,32.09-12.8,15.92,1.69,26.54,13,27.81,29,.21,2.7.14,5.42.4,8.11.22,2.27-.62,2.92-2.86,2.91-14-.09-28.06,0-42.09,0ZM202,148.92c0-8.3-6.19-14-14.73-14-8.35,0-14.58,5.84-14.74,14Z"/>
          <path class="cls-2" d="M205.77,102.78v8.81H168.59v-8.81Z"/>
        </g>
      </g>
    </g>
  </g>
</svg>
