<svg xmlns="http://www.w3.org/2000/svg" width="101.08" height="172.76" viewBox="0 0 101.08 172.76">
  <defs>
    <style>
      .cls-1 {
        fill: #333;
      }

      .cls-2 {
        fill: #b4d2ed;
      }
    </style>
  </defs>
  <g id="Capa_2" data-name="Capa 2">
    <g id="Capa_1-2" data-name="Capa 1">
      <g>
        <path class="cls-1" d="M14.8,97.92a132.88,132.88,0,0,1-9.3-28.7C2.11,53.89,0,38.36.34,22.51A50.25,50.25,0,0,1,2.65,7.07C5.24-.45,11.32-2.23,16.81,3c3.89,3.68,6.31,8.56,8.5,13.57,5.26,12,8.62,24.82,11.52,37.75,1.73,7.78,3.15,15.64,4.71,23.46.1.53.24,1.06.4,1.71a23.76,23.76,0,0,1,17.15,0c.68-3.69,1.32-7.31,2-10.9,3.26-16.46,6.94-32.77,13-48.3,2-5.27,4.38-10.41,7.82-14.76a19.49,19.49,0,0,1,4.25-4.07C90.31-1.39,95,.09,97.38,4.83c1.91,3.79,2.57,8,2.92,12.25,1.17,14.16-.38,28.11-2.8,42C95.37,71.3,92.44,83.3,87.65,94.65c-.47,1.12-1,2.2-1.38,3.06,2.54,3.28,5.24,6.25,7.38,9.65,8.44,13.38,9.93,27.64,3.24,42.42-4,8.85-11,14.21-19.06,17.78-10.6,4.69-21.69,5.68-32.95,5-8.69-.52-17.14-2.33-25-6.62C9.11,160.11,2.22,150.89.42,137.45-1.29,124.7,2.35,113.72,9.6,104,11.19,101.91,13,100,14.8,97.92ZM82,94.46c1-2.33,2.16-4.51,3-6.82,3.47-9.33,5.52-19.11,7.2-29,2-12,3.54-24.15,3.37-36.41A66.76,66.76,0,0,0,94,9.47C93.26,6.09,90.49,5.08,87.86,7a13.84,13.84,0,0,0-4.08,4.49,98,98,0,0,0-6,13c-6.15,17.33-9.76,35.46-13,53.67-.7,3.89-.63,3.9,2.51,5.81A3.08,3.08,0,0,1,68.78,88,2.5,2.5,0,0,1,65,89.25c-1.55-.82-3.07-1.72-4.58-2.61q-9.95-5.83-19.85,0c-1.51.89-3,1.8-4.58,2.6A2.53,2.53,0,0,1,32.17,88a3.06,3.06,0,0,1,1.44-4c1-.65,2.6-1,3-2s-.2-2.6-.44-3.92c-3.09-17.19-6.47-34.3-12-50.73a126.68,126.68,0,0,0-6.91-15.73,13.68,13.68,0,0,0-4.33-4.71C10.44,5.11,8,6.26,7,9.34a10.24,10.24,0,0,0-.63,2.29C6,15.3,5.41,19,5.39,22.66a208.08,208.08,0,0,0,3.41,36c1.68,9.89,3.73,19.67,7.21,29,.86,2.3,2,4.47,3,6.8l1.26-.87c1.69-1.18,3.33-2.45,5.07-3.51a2.4,2.4,0,0,1,3.47,1.06,3.16,3.16,0,0,1-.91,4c-.5.38-1,.71-1.55,1.06a54,54,0,0,0-11.83,10.4c-8.29,10.18-11.38,21.88-7.7,35.25,2.79,10.17,9.42,16.46,18.06,20,15.56,6.39,31.42,6.4,47.31,1.53a32.25,32.25,0,0,0,17.55-12.31c7.89-11.19,7.77-28-.2-40.24-4.21-6.48-9.79-11.18-15.86-15.24C71.84,94.42,71.3,93,72.1,91.3s2.36-2,4.3-.76S79.94,93,82,94.46Z"/>
        <path class="cls-2" d="M82,94.46c-2-1.44-3.77-2.75-5.57-3.92s-3.49-.93-4.3.76-.26,3.12,1.61,4.38c6.07,4.06,11.65,8.76,15.86,15.24,8,12.24,8.09,29.05.2,40.24a32.25,32.25,0,0,1-17.55,12.31c-15.89,4.87-31.75,4.86-47.31-1.53-8.64-3.54-15.27-9.83-18.06-20-3.68-13.37-.59-25.07,7.7-35.25a54,54,0,0,1,11.83-10.4c.52-.35,1.05-.68,1.55-1.06a3.16,3.16,0,0,0,.91-4,2.4,2.4,0,0,0-3.47-1.06c-1.74,1.06-3.38,2.33-5.07,3.51L19,94.5C18,92.17,16.87,90,16,87.7c-3.48-9.33-5.53-19.11-7.21-29a208.08,208.08,0,0,1-3.41-36c0-3.68.57-7.36.93-11A10.24,10.24,0,0,1,7,9.34c1.09-3.08,3.49-4.23,6-2.46a13.68,13.68,0,0,1,4.33,4.71,126.68,126.68,0,0,1,6.91,15.73c5.57,16.43,9,33.54,12,50.73.24,1.32.87,2.92.44,3.92s-2,1.36-3,2a3.06,3.06,0,0,0-1.44,4A2.53,2.53,0,0,0,36,89.27c1.55-.8,3.07-1.71,4.58-2.6q9.91-5.85,19.85,0c1.51.89,3,1.79,4.58,2.61A2.5,2.5,0,0,0,68.78,88a3.08,3.08,0,0,0-1.49-4.1C64.15,82,64.08,82,64.78,78.12c3.26-18.21,6.87-36.34,13-53.67a98,98,0,0,1,6-12.95A13.84,13.84,0,0,1,87.86,7c2.63-1.93,5.4-.92,6.12,2.46a66.76,66.76,0,0,1,1.58,12.76c.17,12.26-1.33,24.38-3.37,36.41-1.68,9.89-3.73,19.67-7.2,29C84.13,90,83,92.13,82,94.46ZM53.75,154.94c2,0,3.14-1,3.35-2.53a2.85,2.85,0,0,0-2.25-3.31,1.94,1.94,0,0,1-1.77-2,2.55,2.55,0,0,0-2.64-2.5A2.51,2.51,0,0,0,47.91,147c-.17,1.34-.69,1.87-1.87,2.08a2.83,2.83,0,0,0-2.17,3.21c.18,1.58,1.44,3,2.91,2.54C49.33,154.15,51.78,153.43,53.75,154.94ZM24,137.18a3,3,0,0,0-.08,5.9,3,3,0,0,0,.08-5.9Zm53.16,0a3,3,0,1,0,2.6,3A2.83,2.83,0,0,0,77.11,137.18Z"/>
        <path class="cls-1" d="M53.75,154.94c-2-1.51-4.42-.79-7-.07-1.47.42-2.73-1-2.91-2.54A2.83,2.83,0,0,1,46,149.12c1.18-.21,1.7-.74,1.87-2.08a2.51,2.51,0,0,1,2.53-2.42,2.55,2.55,0,0,1,2.64,2.5,1.94,1.94,0,0,0,1.77,2,2.85,2.85,0,0,1,2.25,3.31C56.89,153.92,55.75,154.94,53.75,154.94Z"/>
        <path class="cls-1" d="M24,137.18a3,3,0,0,1-.08,5.9,3,3,0,0,1,.08-5.9Z"/>
        <path class="cls-1" d="M77.11,137.18a2.85,2.85,0,0,1,2.6,3,2.82,2.82,0,0,1-2.69,2.9,3,3,0,0,1,.09-5.9Z"/>
      </g>
    </g>
  </g>
</svg>
