<svg xmlns="http://www.w3.org/2000/svg" width="766" height="939" viewBox="0 0 766 939">
  <defs>
    <style>
      .cls-1 {
        fill: #dcb5d4;
        stroke-width: 25px;
      }

      .cls-1, .cls-2, .cls-3, .cls-4, .cls-6 {
        stroke: #333;
        stroke-miterlimit: 10;
      }

      .cls-2 {
        fill: #80acd5;
      }

      .cls-2, .cls-3, .cls-4, .cls-6 {
        stroke-width: 10px;
      }

      .cls-3 {
        fill: #fee378;
      }

      .cls-4 {
        fill: #ede9ed;
      }

      .cls-5, .cls-6 {
        fill: #6ed0df;
      }
    </style>
  </defs>
  <g id="Capa_2" data-name="Capa 2">
    <g id="Capa_1-2" data-name="Capa 1">
      <g>
        <rect class="cls-1" x="12.5" y="12.5" width="741" height="914" rx="92.49"/>
        <path class="cls-2" d="M228.79,703.54c15.13,0,28.62-.09,42.1,0,17.13.14,24.05,7,24.19,24.08.09,10.57.22,21.16-.17,31.72-.42,11.69-6.33,18.7-17.93,19.71a367.19,367.19,0,0,1-38.55.95c-7.2-.14-10.18,1.87-9.78,9.48.56,10.54.31,21.14.13,31.71-.32,17.82-7.88,25.27-25.48,25.37-8.92,0-17.84,0-26.76-.06-17.12-.21-24.38-7.71-24.5-25.13q-.12-18.82-.32-37.66c0-.6-.43-1.19-1.35-3.56-9.39,0-19.48.13-29.57,0A172.29,172.29,0,0,1,102.06,779c-8.39-1.08-14.79-6.23-15.44-14.34C85.45,750,85,735.05,86.36,720.42c1.12-11.86,8.32-16.59,20.71-16.8,14.47-.25,29-.06,44.93-.06,0-13.64,0-26.39,0-39.13,0-21.18,6.66-27.87,27.87-28.06,7.93-.07,15.86-.11,23.79,0,16.87.3,24.91,8.25,25.1,25C228.91,674.92,228.79,688.43,228.79,703.54Z"/>
        <path class="cls-3" d="M494.44,836.52c-27.92,4.12-55.22-29-53.43-56.34,2.23-34.15,22.57-54,59.06-55,22.48-.6,53.19,23.75,53.25,55.53C553.38,812.07,527.65,838.93,494.44,836.52Z"/>
        <path class="cls-4" d="M679.66,654.39a55,55,0,0,1-55.18,55.19c-31.8.06-55.19-23.89-56.2-55.28-1.08-33.65,30.29-57.26,56.19-56.13C655.61,599.53,679.65,622.85,679.66,654.39Z"/>
        <path class="cls-5" d="M139.85,73.69l-2.1.73Z"/>
        <rect class="cls-6" x="81.5" y="72.5" width="603" height="403" rx="56.97"/>
      </g>
    </g>
  </g>
</svg>
