<svg xmlns="http://www.w3.org/2000/svg" width="465.66" height="354.54" viewBox="0 0 465.66 354.54">
  <defs>
    <style>
      .cls-1 {
        fill: #333;
      }

      .cls-2 {
        fill: #dcb5d4;
      }

      .cls-3, .cls-4 {
        fill: #ca6689;
      }

      .cls-4 {
        stroke: #333;
        stroke-miterlimit: 10;
        stroke-width: 6px;
      }
    </style>
  </defs>
  <g id="Capa_2" data-name="Capa 2">
    <g id="Capa_1-2" data-name="Capa 1">
      <g>
        <g>
          <path class="cls-1" d="M443.69,321.47c-1.74,6.78-4.35,13.07-9.68,17.94-6.69,6.12-14.69,8.06-23.51,8q-61.87-.12-123.75,0-109.17,0-218.34,0c-7.6,0-14.83-1.1-21.1-5.81C39,335.34,35,326.88,34.9,316.52c-.06-8.52,0-17,0-25.55q0-129.33,0-258.66c0-13,5-23.18,16.86-28.86A36.15,36.15,0,0,1,66.7.24c41-.25,82-.36,122.94,0C208.9.34,224.7,8.6,234.78,25c5.34,8.7,11.18,11.4,21.24,11.28,51.49-.58,103-.23,154.48-.3,8.82,0,16.82,1.93,23.51,8,5.33,4.87,7.94,11.15,9.68,17.94Zm-204.63,14q85.43,0,170.84,0a35.52,35.52,0,0,0,8.7-.79c8.46-2.2,13.11-9.29,13.11-19.49q0-105.37,0-210.75a31.18,31.18,0,0,0-.12-4c-.93-7.35-4.66-12.77-11.75-15.17A31.18,31.18,0,0,0,410,84q-71.66-.1-143.3,0c-4.77,0-7.88-1.57-10.51-5.6C246,62.69,235.58,47.11,225.09,31.57c-8.56-12.7-20.65-19.38-36-19.44-40.58-.15-81.16-.06-121.74,0a29.39,29.39,0,0,0-7.5.81c-8.45,2.31-13,9.3-13,19.56q0,141.3,0,282.6a33.18,33.18,0,0,0,.12,4c.75,6.21,3.56,11.4,9.31,13.93a30.49,30.49,0,0,0,11.92,2.34Q153.65,335.55,239.06,335.44ZM431.71,78V69C431.7,55.05,424.78,48,411,48q-77.77,0-155.56,0c-1.35,0-2.71.17-4.7.3,4.71,7.07,9.12,13.36,13.15,19.89,1.75,2.83,3.7,3.83,7,3.82,44.14-.12,88.29-.06,132.43-.09C413,71.94,422.76,71.28,431.71,78Z"/>
          <path class="cls-2" d="M239.06,335.44q-85.41,0-170.84-.1A30.49,30.49,0,0,1,56.3,333c-5.75-2.53-8.56-7.72-9.31-13.93a33.18,33.18,0,0,1-.12-4q0-141.3,0-282.6c0-10.26,4.57-17.25,13-19.56a29.39,29.39,0,0,1,7.5-.81c40.58,0,81.16-.13,121.74,0,15.31.06,27.4,6.74,36,19.44C235.58,47.11,246,62.69,256.23,78.41c2.63,4,5.74,5.61,10.51,5.6q71.64-.18,143.3,0a31.18,31.18,0,0,1,9.8,1.23c7.09,2.4,10.82,7.82,11.75,15.17a31.18,31.18,0,0,1,.12,4q0,105.38,0,210.75c0,10.2-4.65,17.29-13.11,19.49a35.52,35.52,0,0,1-8.7.79Q324.49,335.47,239.06,335.44Z"/>
          <path class="cls-3" d="M431.71,78c-8.95-6.73-18.72-6.07-28.4-6.07-44.14,0-88.29,0-132.43.09-3.33,0-5.28-1-7-3.82-4-6.53-8.44-12.82-13.15-19.89,2-.13,3.35-.3,4.7-.3Q333.18,48,411,48c13.82,0,20.74,7,20.75,20.93Z"/>
        </g>
        <path class="cls-4" d="M67.59,321.86l-13-9.66a12.51,12.51,0,0,0-11.51-1.8l-15.32,5.22a12.52,12.52,0,0,1-15.9-15.85l5.18-15.33a12.55,12.55,0,0,0-1.84-11.51L5.52,260a12.52,12.52,0,0,1,10.16-20l16.18.18a12.55,12.55,0,0,0,10.38-5.3l9.32-13.23a12.52,12.52,0,0,1,22.18,3.48l4.82,15.44a12.52,12.52,0,0,0,8.26,8.23l15.45,4.78a12.52,12.52,0,0,1,3.55,22.17l-13.2,9.36a12.51,12.51,0,0,0-5.27,10.39l.23,16.18A12.52,12.52,0,0,1,67.59,321.86Z"/>
        <path class="cls-4" d="M396.58,106.61l-7.08-5.26a6.85,6.85,0,0,0-6.28-1l-8.35,2.85a6.82,6.82,0,0,1-8.66-8.64L369,86.21a6.86,6.86,0,0,0-1-6.28l-5.28-7.06A6.82,6.82,0,0,1,368.28,62l8.82.1a6.85,6.85,0,0,0,5.65-2.89L387.84,52a6.82,6.82,0,0,1,12.09,1.89l2.63,8.42a6.83,6.83,0,0,0,4.5,4.49l8.43,2.6a6.83,6.83,0,0,1,1.93,12.09l-7.2,5.1a6.84,6.84,0,0,0-2.87,5.67l.13,8.82A6.83,6.83,0,0,1,396.58,106.61Z"/>
        <path class="cls-4" d="M394.31,347.62l-20.39-15.17a19.7,19.7,0,0,0-18.08-2.84l-24.06,8.2a19.66,19.66,0,0,1-25-24.9l8.13-24.08A19.66,19.66,0,0,0,312,270.76L296.8,250.41a19.67,19.67,0,0,1,16-31.45l25.41.28a19.64,19.64,0,0,0,16.3-8.33l14.64-20.77A19.67,19.67,0,0,1,404,195.6l7.58,24.26a19.66,19.66,0,0,0,13,12.92l24.28,7.51a19.66,19.66,0,0,1,5.57,34.83l-20.73,14.71a19.65,19.65,0,0,0-8.28,16.32l.36,25.41A19.66,19.66,0,0,1,394.31,347.62Z"/>
      </g>
    </g>
  </g>
</svg>
