<svg xmlns="http://www.w3.org/2000/svg" width="249.38" height="332.86" viewBox="0 0 249.38 332.86">
  <defs>
    <style>
      .cls-1 {
        fill: #333;
      }

      .cls-2, .cls-3, .cls-4 {
        fill: #84c9ef;
      }

      .cls-2 {
        stroke: #84c9ef;
        stroke-width: 6px;
      }

      .cls-2, .cls-4 {
        stroke-miterlimit: 10;
      }

      .cls-4 {
        stroke: #7aa3da;
        stroke-linecap: round;
        stroke-width: 10px;
      }

      .cls-5 {
        fill: #7aa3da;
      }
    </style>
  </defs>
  <g id="Capa_2" data-name="Capa 2">
    <g id="Capa_1-2" data-name="Capa 1">
      <g>
        <g>
          <path class="cls-1" d="M46.15,0A25.75,25.75,0,0,0,49,.36Q126.69,1,204.36,1.57c9.31.06,18.62-.27,27.94-.38,6.62-.08,9.08,2.12,9.55,8.63.28,3.77.41,7.56.52,11.34q1.9,64.79,3.8,129.58c1,34.1,2.4,68.19,3.19,102.29a80.62,80.62,0,0,1-6.22,32.64c-6.51,15.8-18.19,26.37-33.64,33s-31.89,8.91-48.47,9.52c-48.06,1.78-96.14,3.07-144.2,4.7-9.23.31-10.18-3.42-12.31-10.62a16.21,16.21,0,0,1-.29-4.2Q3.06,225.58,1.91,133.14C1.38,94,.63,54.94,0,15.85c0-2.6.14-5.19.24-7.78C.4,4.2,2.81,1.88,5.84,0ZM231.8,247.81q-3.69-115-7.33-228.54L17.39,17.66q2.2,149,4.41,297.38c2.27,0,4.43,0,6.58,0,32.05-.85,64.1-1.59,96.14-2.64,12.22-.4,24.45-1.12,36.59-2.42,21.32-2.27,32.07-15.08,30.57-36.5-.45-6.38-2.49-12.68-4-19-1.27-5.2,1-9.15,6.17-10.08a59,59,0,0,1,6.76-.76C211,243.08,221.07,244.6,231.8,247.81Zm.12,18.4a63.06,63.06,0,0,0-24.29-5.08c3,14.44,2.36,28.18-4.8,41.36C217.78,297.19,230.33,283.28,231.92,266.21Z"/>
          <path class="cls-2" d="M231.8,247.81c-10.73-3.21-20.85-4.73-31.22-4.14a59,59,0,0,0-6.76.76c-5.21.93-7.44,4.88-6.17,10.08,1.54,6.28,3.58,12.58,4,19,1.5,21.42-9.25,34.23-30.57,36.5-12.14,1.3-24.37,2-36.59,2.42-32,1.05-64.09,1.79-96.14,2.64-2.15.06-4.31,0-6.58,0Q19.6,166.49,17.39,17.66l207.08,1.61Q228.12,133,231.8,247.81Z"/>
          <path class="cls-3" d="M231.92,266.21c-1.59,17.07-14.14,31-29.09,36.28,7.16-13.18,7.83-26.92,4.8-41.36A63.06,63.06,0,0,1,231.92,266.21Z"/>
        </g>
        <line class="cls-4" x1="30.38" y1="44" x2="202.38" y2="44"/>
        <line class="cls-4" x1="32.38" y1="71" x2="114.38" y2="71"/>
        <line class="cls-4" x1="36.38" y1="232" x2="206.38" y2="230"/>
        <line class="cls-4" x1="36.38" y1="262" x2="82.38" y2="261"/>
        <line class="cls-4" x1="37.38" y1="289" x2="172.38" y2="286"/>
        <line class="cls-4" x1="36.37" y1="206.5" x2="83.38" y2="206.5"/>
        <line class="cls-4" x1="36.38" y1="179" x2="55.38" y2="179"/>
        <line class="cls-4" x1="149.37" y1="207.07" x2="204.37" y2="206.43"/>
        <line class="cls-4" x1="166.38" y1="180" x2="203.37" y2="179.43"/>
        <line class="cls-4" x1="95.38" y1="261" x2="184.38" y2="260"/>
        <line class="cls-4" x1="129.38" y1="71" x2="199.38" y2="71"/>
        <path class="cls-5" d="M114.23,208.48c-3.43-2.95-6.83-5.83-10.19-8.76C92.15,189.32,80.18,179,68.45,168.47A110.68,110.68,0,0,1,49.62,147c-8.51-12.94-11-26.82-5.81-41.57,4.43-12.7,13.18-21.13,26.49-24,12.35-2.68,23,.88,31.72,10a102.13,102.13,0,0,1,7.2,9.31,6.07,6.07,0,0,0,10.12,0c.6-.83,1.12-1.71,1.7-2.56,4-5.91,8.86-11,15.4-14.17,11.05-5.3,22-4.55,32.44,1.57,11.18,6.57,16.56,17,18.14,29.58,1.47,11.66-1.69,22.18-8.08,31.86-6.72,10.16-15.34,18.62-24.4,26.61-13,11.44-26.14,22.66-39.22,34C115,207.9,114.65,208.15,114.23,208.48Z"/>
      </g>
    </g>
  </g>
</svg>
